<svg width="48" height="48" viewBox="0 0 48 48" fill="none" xmlns="http://www.w3.org/2000/svg">
<path d="M24 44C35.0457 44 44 35.0457 44 24C44 12.9543 35.0457 4 24 4C12.9543 4 4 12.9543 4 24C4 35.0457 12.9543 44 24 44Z" stroke="white" stroke-width="2" stroke-linecap="round" stroke-linejoin="round"/>
<path d="M43.5 25.68C36.5 23.82 30.24 24.04 25.62 25.68C20.46 27.52 15.6 31.4 10.74 38.32M17.12 5.5C25.86 17.56 29.16 24.34 33.18 40.94L17.12 5.5ZM38.26 10.18C30.82 18.88 20.38 21.5 4.5 21.88L38.26 10.18Z" stroke="white" stroke-width="2" stroke-linecap="round" stroke-linejoin="round"/>
</svg>
