<svg width="48" height="48" viewBox="0 0 48 48" fill="none" xmlns="http://www.w3.org/2000/svg">
<path d="M18 18H26.301V22.254H26.421C27.576 20.181 30.402 18 34.617 18C43.38 18 45 23.454 45 30.549V45H36.345V32.19C36.345 29.136 36.282 25.203 31.845 25.203C27.339 25.203 26.649 28.53 26.649 31.968V45H18V18Z" fill="white"/>
<path d="M3 18H12V45H3V18Z" fill="white"/>
<path d="M12.0001 10.5001C11.9997 11.6939 11.525 12.8388 10.6806 13.6827C9.83607 14.5266 8.69094 15.0005 7.49707 15.0001C6.3032 14.9997 5.15838 14.525 4.31447 13.6806C3.47056 12.8361 2.99667 11.6909 2.99707 10.4971C2.99747 9.3032 3.47211 8.15838 4.31659 7.31447C4.73473 6.89661 5.23108 6.56519 5.77731 6.33915C6.32353 6.11311 6.90893 5.99687 7.50007 5.99707C8.09122 5.99727 8.67653 6.1139 9.22261 6.3403C9.76868 6.5667 10.2648 6.89845 10.6827 7.31659C11.1005 7.73473 11.4319 8.23108 11.658 8.77731C11.884 9.32353 12.0003 9.90893 12.0001 10.5001Z" fill="white"/>
</svg>
