<svg width="48" height="48" viewBox="0 0 48 48" fill="none" xmlns="http://www.w3.org/2000/svg">
<path d="M25.125 0.608887C15.5055 0.608887 6 7.02139 6 17.3999C6 23.9999 9.7125 27.7499 11.9625 27.7499C12.891 27.7499 13.425 25.1624 13.425 24.4319C13.425 23.5604 11.2035 21.7034 11.2035 18.0749C11.2035 10.5374 16.941 5.19289 24.366 5.19289C30.75 5.19289 35.475 8.82139 35.475 15.4874C35.475 20.4659 33.4785 29.8034 27.009 29.8034C24.675 29.8034 22.677 28.1159 22.677 25.6979C22.677 22.1534 25.152 18.7229 25.152 15.0659C25.152 8.86039 16.3485 9.98539 16.3485 17.4854C16.3485 19.0604 16.545 20.8034 17.2485 22.2389C15.954 27.8084 13.311 36.1049 13.311 41.8424C13.311 43.6139 13.5645 45.3584 13.7325 47.1299C14.0505 47.4869 13.8915 47.4494 14.379 47.2709C19.104 40.8014 18.936 39.5369 21.0735 31.0709C22.227 33.2654 25.2075 34.4459 27.57 34.4459C37.5255 34.4459 41.9985 24.7424 41.9985 15.9959C41.9985 6.68689 33.954 0.611887 25.1235 0.611887L25.125 0.608887Z" fill="white"/>
</svg>
