<svg width="48" height="48" viewBox="0 0 48 48" fill="none" xmlns="http://www.w3.org/2000/svg">
<path d="M25.11 34.05C23.862 31.596 22.402 29.12 19.548 29.12C19.006 29.12 18.456 29.212 17.958 29.434L16.99 27.5C18.17 26.482 20.078 25.678 22.53 25.678C26.346 25.678 28.308 27.522 29.864 29.866C30.782 27.864 31.22 25.158 31.22 21.806C31.22 13.43 28.604 9.134 22.488 9.134C16.46 9.134 13.852 13.43 13.852 21.806C13.852 30.134 16.462 34.388 22.488 34.388C23.444 34.388 24.314 34.286 25.11 34.05ZM26.604 36.972C25.2611 37.3334 23.8767 37.5176 22.486 37.52C14.458 37.52 6.604 31.116 6.604 21.804C6.606 12.406 14.458 6 22.486 6C30.648 6 38.43 12.358 38.43 21.806C38.43 27.062 35.978 31.332 32.416 34.092C33.56 35.814 34.73 36.964 36.392 36.964C38.19 36.964 38.914 35.59 39.048 34.492H41.382C41.522 35.952 40.78 42 34.234 42C30.256 42 28.164 39.708 26.59 37.008L26.604 36.972Z" fill="white"/>
</svg>
