<svg width="48" height="48" viewBox="0 0 48 48" fill="none" xmlns="http://www.w3.org/2000/svg">
<path d="M30.375 24C29.7075 24 29.055 24.1979 28.5 24.5688C27.9449 24.9396 27.5124 25.4667 27.2569 26.0834C27.0015 26.7001 26.9346 27.3787 27.0649 28.0334C27.1951 28.6881 27.5165 29.2895 27.9885 29.7615C28.4605 30.2335 29.0619 30.5549 29.7166 30.6851C30.3713 30.8154 31.0499 30.7485 31.6666 30.4931C32.2833 30.2376 32.8104 29.8051 33.1812 29.25C33.5521 28.695 33.75 28.0425 33.75 27.375C33.75 26.4799 33.3944 25.6215 32.7615 24.9885C32.1286 24.3556 31.2701 24 30.375 24Z" fill="white"/>
<path d="M18.9168 30.493C20.6389 29.7797 21.4566 27.8054 20.7433 26.0833C20.03 24.3612 18.0557 23.5435 16.3337 24.2568C14.6116 24.9701 13.7938 26.9444 14.5071 28.6664C15.2204 30.3885 17.1947 31.2063 18.9168 30.493Z" fill="white"/>
<path d="M46.5001 23.7909C46.5001 20.8669 44.1432 18.4884 41.2501 18.4884C40.0306 18.4883 38.8496 18.9148 37.9116 19.6941C34.6304 17.4656 30.3385 16.1016 25.7569 15.825L27.8194 8.41875L34.0454 9.65625C34.2235 12.1388 36.2954 14.1084 38.7938 14.1084C41.4188 14.1084 43.5544 11.9522 43.5544 9.3075C43.5544 6.66281 41.3438 4.5 38.7188 4.5C36.8879 4.5 35.3147 5.54906 34.5141 7.19719L26.0766 5.52L23.161 15.7875L22.7269 15.7997C17.9804 16.0069 13.5076 17.3869 10.0922 19.6931C9.1545 18.911 7.97112 18.4845 6.75005 18.4884C3.85411 18.4884 1.50005 20.8669 1.50005 23.7909C1.49592 24.7216 1.73739 25.637 2.20009 26.4445C2.66279 27.252 3.33034 27.9232 4.13536 28.3903C4.0793 28.8048 4.05143 29.2227 4.05193 29.6409C4.06224 33.3666 6.16037 36.8597 9.95818 39.4847C13.7213 42.0722 18.7041 43.5 24.0001 43.5C29.296 43.5 34.2901 42.0722 38.0466 39.4791C41.8463 36.8541 43.9388 33.36 43.9388 29.6297C43.9379 29.2128 43.9116 28.7964 43.8601 28.3828C44.6655 27.9178 45.3339 27.2482 45.7975 26.4419C46.2611 25.6355 46.5034 24.721 46.5001 23.7909ZM38.8126 7.03125C39.2576 7.03125 39.6926 7.16321 40.0626 7.41044C40.4326 7.65768 40.721 8.00908 40.8913 8.42021C41.0616 8.83135 41.1061 9.28375 41.0193 9.7202C40.9325 10.1567 40.7182 10.5576 40.4035 10.8722C40.0889 11.1869 39.688 11.4012 39.2515 11.488C38.815 11.5748 38.3626 11.5303 37.9515 11.36C37.5404 11.1897 37.189 10.9013 36.9417 10.5313C36.6945 10.1613 36.5626 9.72626 36.5626 9.28125C36.5626 8.68451 36.7996 8.11222 37.2216 7.69026C37.6435 7.2683 38.2158 7.03125 38.8126 7.03125ZM4.00505 23.7909C4.00231 23.0561 4.29115 22.3502 4.80821 21.828C5.32527 21.3058 6.02834 21.0101 6.76318 21.0056C7.20872 21.0066 7.64721 21.117 8.04005 21.3272C6.58693 22.6781 5.51536 24.1781 4.84599 25.7972C4.58059 25.5346 4.36968 25.2223 4.22536 24.878C4.08105 24.5337 4.00618 24.1643 4.00505 23.7909ZM36.6394 37.4062C33.2888 39.7116 28.8019 40.9819 24.0047 40.9819C19.2076 40.9819 14.7188 39.7134 11.371 37.4062C8.27724 35.2697 6.56724 32.5069 6.56724 29.625C6.56896 28.7517 6.7261 27.8857 7.0313 27.0675C7.5638 25.5919 8.5463 24.21 9.95161 22.9622C10.3907 22.5743 10.8528 22.2134 11.3354 21.8812L11.3635 21.8616L11.386 21.8456C14.7347 19.5469 19.216 18.2831 24.0057 18.2831C28.7954 18.2831 33.2775 19.5497 36.6263 21.8456L36.6479 21.8616L36.6797 21.885C37.1617 22.2159 37.6235 22.5753 38.0626 22.9613C39.4688 24.21 40.4513 25.5909 40.9838 27.0684C41.177 27.6047 41.3125 28.16 41.3879 28.725C41.4255 29.0251 41.4443 29.3272 41.4441 29.6297C41.4432 32.5097 39.7369 35.2725 36.6394 37.4062ZM43.1644 25.7887C42.496 24.1687 41.4244 22.6678 39.9704 21.315C40.3648 21.107 40.8042 20.9988 41.2501 21C41.9848 21.0045 42.6878 21.3002 43.2047 21.8224C43.7216 22.3446 44.0102 23.0506 44.0072 23.7853C44.0066 24.1587 43.9317 24.5283 43.787 24.8725C43.6424 25.2168 43.4307 25.5289 43.1644 25.7906V25.7887Z" fill="white"/>
<path d="M30.3027 33.9581C30.2793 33.9816 27.9065 36.4022 24.0074 36.4209C20.0699 36.4022 17.7937 34.0556 17.6971 33.9581C17.6244 33.886 17.5262 33.8456 17.4238 33.8456C17.3215 33.8456 17.2232 33.886 17.1505 33.9581L15.8662 35.2209C15.8297 35.2571 15.8008 35.3001 15.7811 35.3475C15.7614 35.3949 15.7512 35.4457 15.7512 35.497C15.7512 35.5484 15.7614 35.5992 15.7811 35.6466C15.8008 35.6939 15.8297 35.737 15.8662 35.7731C16.1849 36.0919 19.1193 38.9822 24.0018 39.0028C28.8712 38.9822 31.8187 36.0919 32.1374 35.7731C32.1739 35.7369 32.2028 35.6938 32.2225 35.6463C32.2423 35.5989 32.2524 35.548 32.2524 35.4966C32.2524 35.4452 32.2423 35.3943 32.2225 35.3468C32.2028 35.2993 32.1739 35.2562 32.1374 35.22L30.8521 33.9572C30.7796 33.8855 30.6817 33.8452 30.5798 33.8452C30.4778 33.8452 30.3799 33.8855 30.3074 33.9572L30.3027 33.9581Z" fill="white"/>
</svg>
