<svg width="20" height="20" viewBox="0 0 20 20" fill="none" xmlns="http://www.w3.org/2000/svg">
<path d="M3.92047 0.0039978C1.76613 0.0039978 0.00292969 1.76716 0.00292969 3.92154V16.0784C0.00292969 18.2327 1.76609 19.9953 3.92047 19.9953H16.0773C18.2316 19.9953 19.9942 18.2327 19.9942 16.0784V3.92154C19.9942 1.7672 18.2316 0.0039978 16.0773 0.0039978H3.92047ZM4.90579 3.30296C5.93875 3.30296 6.57501 3.98108 6.59465 4.87246C6.59465 5.74416 5.93871 6.44134 4.88581 6.44134H4.86643C3.85313 6.44134 3.19819 5.7442 3.19819 4.87246C3.19819 3.9811 3.87295 3.30296 4.90577 3.30296H4.90579ZM13.8074 7.46916C15.794 7.46916 17.2832 8.7676 17.2832 11.5579V16.7669H14.2641V11.9071C14.2641 10.6859 13.8272 9.85276 12.7346 9.85276C11.9005 9.85276 11.4034 10.4143 11.1851 10.9568C11.1053 11.1509 11.0857 11.4219 11.0857 11.6934V16.7669H8.06669C8.06669 16.7669 8.10631 8.5346 8.06669 7.6822H11.0864V8.96868C11.4876 8.34968 12.2052 7.46914 13.8074 7.46914V7.46916ZM3.37627 7.68286H6.39533V16.7669H3.37627V7.68286Z" fill="#041836"/>
</svg>
