<svg width="42" height="42" viewBox="0 0 42 42" fill="none" xmlns="http://www.w3.org/2000/svg">
<path d="M29.225 9.27508L31.745 6.75508C32.305 6.19508 31.9025 5.26758 31.1325 5.26758H20.125C19.635 5.26758 19.25 5.65258 19.25 6.14258V17.1501C19.25 17.9376 20.195 18.3226 20.7375 17.7626L23.275 15.2251C26.7225 17.7801 28.9625 21.8401 28.9625 26.4601C28.9625 27.6151 28.8225 28.7526 28.5425 29.8201C28.3325 30.6951 29.3825 31.3251 30.0125 30.6776C32.7062 27.9087 34.213 24.198 34.2125 20.3351C34.2125 15.9426 32.27 12.0051 29.225 9.27508ZM21.2625 24.2551L18.725 26.7751C15.2775 24.2201 13.0375 20.1601 13.0375 15.5401C13.0375 14.3851 13.1775 13.2476 13.4575 12.1801C13.6675 11.3051 12.6175 10.6751 11.9875 11.3226C10.5907 12.7581 9.4991 14.4618 8.7787 16.3308C8.0583 18.1998 7.72399 20.1954 7.79595 22.1971C7.86791 24.1988 8.34464 26.1652 9.19738 27.9777C10.0501 29.7901 11.2612 31.411 12.7575 32.7426L10.2375 35.2626C9.67753 35.8226 10.08 36.7501 10.85 36.7501H21.8575C22.3475 36.7501 22.7325 36.3651 22.7325 35.8751V24.8676C22.735 24.6962 22.6861 24.528 22.592 24.3847C22.498 24.2413 22.3632 24.1295 22.2049 24.0636C22.0467 23.9976 21.8723 23.9806 21.7044 24.0148C21.5364 24.0489 21.3825 24.1326 21.2625 24.2551Z" fill="#CCCCCC"/>
</svg>
