<svg width="42" height="42" viewBox="0 0 42 42" fill="none" xmlns="http://www.w3.org/2000/svg">
<path d="M42 25.55C42 26.6 39.9 27.3 37.45 27.65C35.875 24.675 32.725 22.4 29.05 20.825C29.4 20.3 29.75 19.95 30.1 19.425H31.5C36.925 19.25 42 22.575 42 25.55ZM11.9 19.25H10.5C5.075 19.25 0 22.575 0 25.55C0 26.6 2.1 27.3 4.55 27.65C6.125 24.675 9.275 22.4 12.95 20.825L11.9 19.25ZM21 21C24.85 21 28 17.85 28 14C28 10.15 24.85 7 21 7C17.15 7 14 10.15 14 14C14 17.85 17.15 21 21 21ZM21 22.75C13.825 22.75 7 27.3 7 31.5C7 35 21 35 21 35C21 35 35 35 35 31.5C35 27.3 28.175 22.75 21 22.75ZM30.975 17.5H31.5C34.475 17.5 36.75 15.225 36.75 12.25C36.75 9.275 34.475 7 31.5 7C30.625 7 29.925 7.175 29.225 7.525C30.625 9.275 31.5 11.55 31.5 14C31.5 15.225 31.325 16.45 30.975 17.5ZM10.5 17.5H11.025C10.675 16.45 10.5 15.225 10.5 14C10.5 11.55 11.375 9.275 12.775 7.525C12.075 7.175 11.375 7 10.5 7C7.525 7 5.25 9.275 5.25 12.25C5.25 15.225 7.525 17.5 10.5 17.5Z" fill="#CCCCCC"/>
</svg>
